<svg xmlns="http://www.w3.org/2000/svg" width="24" height="24" viewBox="0 0 24 24" fill="none">
<path d="M11.9631 17.8245H18.4386C18.6908 17.8389 18.9424 17.787 19.1694 17.6738C19.3964 17.5605 19.5913 17.3896 19.7355 17.1774C19.8796 16.9652 19.9683 16.7188 19.9929 16.4616C20.0176 16.2044 19.9775 15.945 19.8764 15.7082C19.5341 14.6495 18.1695 13.3798 18.1695 12.1304C18.1695 9.35736 18.1695 8.6276 16.8345 6.99684C16.4025 6.47194 15.8668 6.0465 15.2627 5.74848L14.5182 5.37874C14.3932 5.30157 14.2855 5.19852 14.2018 5.07619C14.1181 4.95386 14.0603 4.81497 14.0323 4.66844C13.9578 4.17455 13.7026 3.72811 13.3184 3.41968C12.9341 3.11124 12.4496 2.96389 11.9631 3.00752C11.4854 2.97817 11.0142 3.13208 10.6414 3.43921C10.2687 3.74633 10.0212 4.18461 9.94727 4.66844C9.91375 4.82003 9.84809 4.96222 9.75492 5.08496C9.66175 5.20771 9.54336 5.308 9.40812 5.37874L8.66358 5.74848C8.05981 6.04662 7.52448 6.47205 7.09273 6.99684C5.75864 8.6276 5.75864 9.35736 5.75864 12.1304C5.75864 13.3798 4.45593 14.5221 4.11361 15.6439C3.90727 16.3221 3.79317 17.8245 5.52092 17.8245H11.9631Z" stroke="black" stroke-width="1.5" stroke-linecap="round" stroke-linejoin="round"/>
<path d="M15.0665 17.8242C15.0747 18.2434 15 18.66 14.847 19.049C14.6939 19.438 14.4657 19.7913 14.1759 20.0878C13.8862 20.3843 13.5409 20.6178 13.1607 20.7744C12.7806 20.9311 12.3735 21.0075 11.9638 20.9991C11.554 21.008 11.1467 20.932 10.7664 20.7756C10.3861 20.6191 10.0406 20.3856 9.75083 20.089C9.46104 19.7923 9.2329 19.4388 9.08016 19.0496C8.92741 18.6604 8.85322 18.2435 8.86203 17.8242" stroke="black" stroke-width="1.5" stroke-linecap="round" stroke-linejoin="round"/>
</svg>